<svg width="249" height="43" viewBox="0 0 249 43" fill="none" xmlns="http://www.w3.org/2000/svg">
<path d="M12.3522 0.0312926C13.4913 -0.0741471 15.2157 0.102137 16.328 0.332089C19.8764 1.0885 22.9834 3.21339 24.9752 6.24588C27.9054 1.69488 32.9492 -0.418291 38.2616 0.114274C41.6614 0.431006 44.7883 2.11036 46.9298 4.76989C49.4228 7.83243 50.274 11.3199 49.8665 15.2052C49.0275 23.2029 42.253 29.7058 36.321 34.4945C34.7573 35.7218 26.3996 42.0168 25.0283 42.0817C24.3799 42.1125 22.9949 41.12 22.4489 40.7739C18.643 38.3386 15.0055 35.6494 11.5612 32.7249C6.25532 28.191 0.57396 21.956 0.041973 14.6327C-0.514454 6.97289 4.50776 0.617858 12.3522 0.0312926Z" fill="white"/>
<path d="M27.7409 13.9576L27.726 13.9034C27.5211 13.1813 26.9759 12.5255 26.5747 11.9003C25.6815 10.5332 25.5553 8.49518 26.3927 7.08442C29.5756 1.72235 37.4582 0.0690072 42.714 3.21395C49.5485 7.30364 49.6949 15.6628 45.9597 21.8702C43.3818 26.1545 40.4481 28.9242 36.733 32.1076C37.625 30.4926 37.9536 27.9109 36.1921 26.7438C34.814 25.8308 31.4463 28.5977 30.3992 26.4706C30.2509 26.1693 30.476 25.2928 30.3286 24.9405C29.6687 23.6925 28.7636 24.5235 29.6436 22.7331C28.0486 22.1348 28.4964 22.176 28.8112 20.8376C28.3778 19.1974 26.8736 19.8187 26.5771 18.9695C26.4994 18.747 27.2165 17.0504 27.3494 16.5697C27.3289 16.5635 27.3446 16.5704 27.2907 16.5298C27.4181 16.0513 27.5735 15.7119 27.6495 15.2195C27.708 14.8402 27.6487 14.284 27.7409 13.9576Z" fill="#FEA101"/>
<path d="M27.7409 13.9575C27.898 14.7005 27.6506 15.9142 27.3495 16.5697C27.329 16.5635 27.3447 16.5704 27.2908 16.5298C27.4182 16.0513 27.5736 15.7118 27.6495 15.2195C27.7081 14.8402 27.6488 14.284 27.7409 13.9575Z" fill="#2C0A03"/>
<path d="M12.4279 1.64182C14.0488 1.46909 15.8545 1.78136 17.3858 2.30319C19.8779 3.15249 22.5352 5.05015 23.7035 7.46214C23.9998 8.07389 24.131 8.6915 24.1313 9.37013C24.1315 9.91053 24.066 10.4025 23.8592 10.9047C23.3037 12.2534 21.8785 13.1953 22.1051 14.8068C22.1702 15.2695 22.3134 15.7282 22.4658 16.1686C22.6432 16.681 23.5156 18.5814 23.3374 19.0362C23.1396 19.5412 22.3256 19.5467 21.8927 19.7546C20.4945 20.426 21.637 21.6457 21.4418 22.0884C21.2712 22.4749 20.6754 22.6235 20.3075 22.7578C20.4603 23.0763 20.712 23.495 20.6506 23.8506C20.593 24.1844 20.1956 24.262 19.9477 24.4722C19.3128 25.0103 19.6522 25.593 19.5871 26.2811C19.5596 26.5714 19.3004 26.9119 19.0746 27.044C17.955 27.699 16.0147 26.8051 14.8866 26.556C14.4441 26.4584 13.881 26.6209 13.5408 26.898C12.8728 27.4423 12.5994 28.2936 12.4839 29.11C12.4167 30.2232 12.7244 31.1473 13.2535 32.1168C12.7467 31.6128 12.0655 31.0529 11.5162 30.5726C10.8203 29.9673 10.1434 29.3403 9.48686 28.6926C5.69813 24.99 2.01542 20.026 1.60564 14.5669C1.09718 7.79349 5.51244 2.15713 12.4279 1.64182Z" fill="#C83900"/>
<path d="M24.9347 19.6472C25.0957 19.7676 25.2494 20.0924 25.5475 20.2807C26.0541 20.6005 26.6075 20.7834 27.1006 21.1063L27.1526 21.1406C26.7396 22.3073 27.0182 22.6921 27.89 23.4486C27.8301 24.6886 28.0617 24.7464 28.9779 25.503C28.8414 26.0673 28.8376 26.5966 29.0751 27.1144C30.1858 29.5353 33.1204 28.8448 35.0961 28.1184C35.3942 28.0087 35.6757 28.3999 35.7537 28.6652C36.0145 29.5523 35.7975 30.4633 35.3944 31.2722C33.7073 34.4034 30.6425 36.7019 27.7964 38.7166C27.0835 39.216 25.761 40.039 25.0012 40.3094C24.4081 40.2874 22.718 39.0688 22.1653 38.7023C19.7275 37.0863 14.7261 33.127 14.1405 30.114C14.0388 29.5908 14.0632 28.7647 14.3843 28.3191C14.4806 28.1855 14.6434 28.0845 14.8125 28.0935C15.0776 28.1073 15.4342 28.2841 15.6881 28.3705C16.6661 28.7031 17.733 28.9296 18.7658 28.7354C19.5187 28.5938 20.2061 28.1994 20.6356 27.5544C21.0661 26.9079 21.1086 26.2571 20.9637 25.5079C21.7993 24.837 22.1547 24.6158 22.0154 23.4743C23.005 22.8484 23.1669 22.2205 22.7827 21.1476C23.6334 20.5993 24.4459 20.5561 24.9347 19.6472Z" fill="#0E0703"/>
<path d="M22.5151 27.5623C23.6797 27.4975 24.0217 27.7199 24.9896 28.3375C25.8498 27.8894 26.1026 27.512 27.1773 27.5476C28.9055 27.605 30.17 29.1395 30.0637 30.8295C29.9461 32.6979 28.1564 34.3466 26.8294 35.5278C26.426 35.8945 26.0206 36.2603 25.611 36.6189C25.3072 36.8849 24.916 37.0872 24.5615 36.7736C22.9957 35.3882 20.4512 33.5136 19.9776 31.4012C19.7875 30.5201 19.9564 29.5996 20.4468 28.8434C20.9489 28.0767 21.6476 27.7456 22.5151 27.5623Z" fill="white"/>
<path d="M24.9989 30.574C25.6944 29.6418 26.1052 29.2269 27.2528 28.9789C28.0969 29.2306 28.4463 29.6655 28.4875 30.547C28.5371 31.6116 27.7796 32.4331 27.1081 33.1606C26.6001 33.6811 25.5817 34.6951 24.9887 35.1012C24.1444 34.5449 21.9632 32.4473 21.6003 31.4781C21.3912 30.9081 21.4231 30.2776 21.6886 29.7316C21.9085 29.2828 22.2018 29.1539 22.6363 29.0009C23.6145 28.9632 24.4597 29.8751 24.9989 30.574Z" fill="#C83900"/>
<path d="M24.9582 12.3823C26.4753 14.16 26.4733 14.7145 25.5126 16.8376C25.3316 17.2378 25.103 17.9073 24.958 18.3384C24.625 17.2553 24.0393 16.3776 23.786 15.2641C23.5061 14.0336 24.3151 13.3614 24.9582 12.3823Z" fill="#0E0703"/>
<path d="M83.4356 10.1608L80.092 26.8786C79.6768 28.911 78.8464 30.5172 77.6008 31.6973C76.3551 32.8555 74.6833 33.4346 72.5854 33.4346C71.5583 33.4346 70.6514 33.2816 69.8647 32.9757C69.0998 32.6698 68.4442 32.2545 67.8979 31.7301C67.3734 31.1837 66.9582 30.55 66.6522 29.8288C66.3463 29.0858 66.1605 28.2772 66.095 27.4031L70.0286 26.6164C70.0941 27.5561 70.3127 28.3209 70.6842 28.911C71.0775 29.4792 71.7222 29.7633 72.6182 29.7633C73.5142 29.7633 74.2463 29.4901 74.8145 28.9438C75.4045 28.3756 75.8197 27.5124 76.0601 26.3541L78.6169 13.6027H71.6348L72.3232 10.1608H83.4356ZM96.6595 33.0413C95.8728 33.0413 95.2281 32.8337 94.7255 32.4184C94.2229 32.0032 93.9716 31.4241 93.9716 30.6811C93.9716 30.5063 93.9825 30.3205 94.0043 30.1238C94.048 29.9272 94.0808 29.7742 94.1027 29.6649L94.201 29.1404H94.0371C93.3378 30.5391 92.562 31.6099 91.7097 32.3529C90.8575 33.074 89.7757 33.4346 88.4645 33.4346C87.6778 33.4346 86.9785 33.2926 86.3666 33.0085C85.7766 32.7025 85.2849 32.2764 84.8915 31.7301C84.4981 31.1837 84.2031 30.5391 84.0064 29.796C83.8098 29.053 83.7114 28.2226 83.7114 27.3048C83.7114 25.6439 83.9081 24.1032 84.3015 22.6828C84.6948 21.2405 85.2412 19.9948 85.9405 18.9459C86.6616 17.875 87.5139 17.0446 88.4973 16.4546C89.5026 15.8427 90.5952 15.5367 91.7753 15.5367C92.9335 15.5367 93.906 15.8427 94.6927 16.4546C95.4794 17.0665 95.9493 17.8641 96.1023 18.8475H96.2662L96.8562 15.9301H100.823L98.0363 29.796H100.101L99.4786 33.0413H96.6595ZM90.2674 30.1238C90.9012 30.1238 91.4694 29.9709 91.972 29.6649C92.4965 29.3371 92.9445 28.9547 93.316 28.5176C93.753 28.0368 94.1136 27.4905 94.3977 26.8786C94.6818 26.2449 94.9003 25.5783 95.0533 24.879L95.6433 21.9616C95.8182 21.0875 95.6215 20.3554 95.0533 19.7654C94.507 19.1535 93.7093 18.8475 92.6604 18.8475C90.4095 18.8475 88.9999 20.2571 88.4317 23.0761L87.9728 25.4363C87.9291 25.6767 87.8854 25.9717 87.8417 26.3214C87.798 26.671 87.7761 26.977 87.7761 27.2392C87.7761 28.1133 87.9837 28.8126 88.399 29.3371C88.836 29.8616 89.4588 30.1238 90.2674 30.1238ZM101.802 33.0413L105.244 15.9301H109.211L108.457 19.7326H108.621C109.254 18.3995 109.986 17.3724 110.817 16.6513C111.669 15.9082 112.751 15.5367 114.062 15.5367C115.308 15.5367 116.269 15.9082 116.947 16.6513C117.624 17.3943 117.985 18.4214 118.028 19.7326H118.192C118.826 18.4432 119.58 17.4271 120.454 16.684C121.328 15.9192 122.443 15.5367 123.798 15.5367C125.109 15.5367 126.103 15.9301 126.781 16.7168C127.458 17.5035 127.797 18.5853 127.797 19.962C127.797 20.421 127.764 20.8799 127.699 21.3388C127.655 21.7759 127.578 22.2348 127.469 22.7156L126.06 29.796H127.961L127.305 33.0413H124.552C123.765 33.0413 123.142 32.8446 122.683 32.4512C122.224 32.036 121.995 31.4569 121.995 30.7139C121.995 30.4079 122.028 30.102 122.093 29.796L123.503 22.7483C123.568 22.4205 123.623 22.1037 123.667 21.7977C123.71 21.4918 123.732 21.2077 123.732 20.9454C123.732 20.3117 123.59 19.82 123.306 19.4703C123.022 19.0988 122.563 18.9131 121.929 18.9131C121.427 18.9131 120.935 19.0551 120.454 19.3392C119.995 19.6015 119.58 19.9511 119.209 20.3882C118.772 20.8908 118.389 21.4699 118.061 22.1255C117.755 22.7593 117.548 23.393 117.438 24.0268L115.636 33.0413H111.669L113.734 22.7483C113.8 22.4424 113.855 22.1364 113.898 21.8305C113.942 21.5027 113.964 21.2077 113.964 20.9454C113.964 20.3117 113.822 19.82 113.538 19.4703C113.254 19.0988 112.795 18.9131 112.161 18.9131C111.593 18.9131 111.079 19.0551 110.62 19.3392C110.161 19.6233 109.746 19.9839 109.375 20.421C108.938 20.9236 108.555 21.4918 108.227 22.1255C107.921 22.7374 107.703 23.3712 107.572 24.0268L105.769 33.0413H101.802ZM134.489 8.78406H138.455L136.259 19.8309H136.423C137.122 18.4323 137.898 17.3724 138.75 16.6513C139.602 15.9082 140.684 15.5367 141.995 15.5367C142.782 15.5367 143.47 15.6897 144.06 15.9957C144.672 16.3016 145.175 16.7277 145.568 17.2741C145.962 17.7986 146.257 18.4432 146.453 19.2081C146.65 19.9511 146.748 20.7706 146.748 21.6666C146.748 23.3275 146.552 24.879 146.158 26.3214C145.765 27.7418 145.208 28.9875 144.487 30.0583C143.787 31.1072 142.935 31.9377 141.93 32.5496C140.946 33.1396 139.865 33.4346 138.685 33.4346C137.526 33.4346 136.554 33.1287 135.767 32.5168C134.98 31.9049 134.511 31.1072 134.358 30.1238H134.194L133.604 33.0413H129.637L134.489 8.78406ZM137.799 30.1238C140.05 30.1238 141.46 28.7143 142.028 25.8952L142.487 23.5351C142.531 23.2947 142.574 22.9997 142.618 22.65C142.662 22.3003 142.684 21.9944 142.684 21.7322C142.684 20.858 142.465 20.1587 142.028 19.6342C141.613 19.1098 141.001 18.8475 140.192 18.8475C139.559 18.8475 138.98 19.0114 138.455 19.3392C137.952 19.6452 137.515 20.0167 137.144 20.4537C136.707 20.9345 136.346 21.4918 136.062 22.1255C135.778 22.7374 135.559 23.393 135.407 24.0923L134.816 27.0097C134.642 27.8839 134.827 28.6269 135.374 29.2388C135.942 29.8288 136.75 30.1238 137.799 30.1238ZM155.143 33.4346C153.132 33.4346 151.526 32.8227 150.324 31.5989C149.122 30.3752 148.521 28.616 148.521 26.3214C148.521 24.8135 148.74 23.4039 149.177 22.0927C149.614 20.7815 150.226 19.6452 151.012 18.6836C151.799 17.7002 152.728 16.9354 153.799 16.389C154.869 15.8208 156.05 15.5367 157.339 15.5367C159.349 15.5367 160.956 16.1486 162.158 17.3724C163.359 18.5962 163.96 20.3554 163.96 22.65C163.96 24.1579 163.742 25.5674 163.305 26.8786C162.868 28.1898 162.256 29.3371 161.469 30.3205C160.682 31.2821 159.743 32.0469 158.65 32.6151C157.579 33.1615 156.41 33.4346 155.143 33.4346ZM155.372 30.1566C156.355 30.1566 157.186 29.796 157.863 29.0749C158.563 28.3537 159.043 27.3048 159.306 25.928L159.896 23.0761C159.939 22.8576 159.972 22.6719 159.994 22.5189C160.016 22.3441 160.027 22.1364 160.027 21.8961C160.027 20.9782 159.776 20.2352 159.273 19.667C158.792 19.0988 158.071 18.8147 157.109 18.8147C156.126 18.8147 155.285 19.1753 154.585 19.8965C153.908 20.6176 153.438 21.6666 153.176 23.0434L152.586 25.928C152.542 26.1028 152.509 26.2777 152.487 26.4525C152.466 26.6273 152.455 26.8349 152.455 27.0753C152.455 27.9931 152.695 28.7362 153.176 29.3043C153.678 29.8725 154.411 30.1566 155.372 30.1566ZM178.676 33.0413C177.889 33.0413 177.245 32.8337 176.742 32.4184C176.239 32.0032 175.988 31.4241 175.988 30.6811C175.988 30.5063 175.999 30.3205 176.021 30.1238C176.065 29.9272 176.097 29.7742 176.119 29.6649L176.218 29.1404H176.054C175.354 30.5391 174.579 31.6099 173.726 32.3529C172.874 33.074 171.792 33.4346 170.481 33.4346C169.694 33.4346 168.995 33.2926 168.383 33.0085C167.793 32.7025 167.301 32.2764 166.908 31.7301C166.515 31.1837 166.22 30.5391 166.023 29.796C165.826 29.053 165.728 28.2226 165.728 27.3048C165.728 25.6439 165.925 24.1032 166.318 22.6828C166.711 21.2405 167.258 19.9948 167.957 18.9459C168.678 17.875 169.53 17.0446 170.514 16.4546C171.519 15.8427 172.612 15.5367 173.792 15.5367C174.95 15.5367 175.923 15.8427 176.709 16.4546C177.496 17.0665 177.966 17.8641 178.119 18.8475H178.283L180.315 8.78406H184.281L180.053 29.796H182.118L181.495 33.0413H178.676ZM172.284 30.1238C172.918 30.1238 173.486 29.9709 173.989 29.6649C174.513 29.3371 174.961 28.9547 175.333 28.5176C175.77 28.0368 176.13 27.4905 176.414 26.8786C176.698 26.2449 176.917 25.5783 177.07 24.879L177.66 21.9616C177.835 21.0875 177.638 20.3554 177.07 19.7654C176.524 19.1535 175.726 18.8475 174.677 18.8475C172.426 18.8475 171.017 20.2571 170.448 23.0761L169.989 25.4363C169.946 25.6767 169.902 25.9717 169.858 26.3214C169.815 26.671 169.793 26.977 169.793 27.2392C169.793 28.1133 170 28.8126 170.416 29.3371C170.853 29.8616 171.475 30.1238 172.284 30.1238ZM197.292 33.0413C196.505 33.0413 195.86 32.8337 195.358 32.4184C194.855 32.0032 194.604 31.4241 194.604 30.6811C194.604 30.5063 194.615 30.3205 194.636 30.1238C194.68 29.9272 194.713 29.7742 194.735 29.6649L194.833 29.1404H194.669C193.97 30.5391 193.194 31.6099 192.342 32.3529C191.489 33.074 190.408 33.4346 189.097 33.4346C188.31 33.4346 187.611 33.2926 186.999 33.0085C186.409 32.7025 185.917 32.2764 185.524 31.7301C185.13 31.1837 184.835 30.5391 184.638 29.796C184.442 29.053 184.343 28.2226 184.343 27.3048C184.343 25.6439 184.54 24.1032 184.933 22.6828C185.327 21.2405 185.873 19.9948 186.572 18.9459C187.294 17.875 188.146 17.0446 189.129 16.4546C190.135 15.8427 191.227 15.5367 192.407 15.5367C193.566 15.5367 194.538 15.8427 195.325 16.4546C196.111 17.0665 196.581 17.8641 196.734 18.8475H196.898L197.488 15.9301H201.455L198.668 29.796H200.733L200.111 33.0413H197.292ZM190.899 30.1238C191.533 30.1238 192.101 29.9709 192.604 29.6649C193.128 29.3371 193.576 28.9547 193.948 28.5176C194.385 28.0368 194.746 27.4905 195.03 26.8786C195.314 26.2449 195.532 25.5783 195.685 24.879L196.275 21.9616C196.45 21.0875 196.254 20.3554 195.685 19.7654C195.139 19.1535 194.341 18.8475 193.292 18.8475C191.041 18.8475 189.632 20.2571 189.064 23.0761L188.605 25.4363C188.561 25.6767 188.517 25.9717 188.474 26.3214C188.43 26.671 188.408 26.977 188.408 27.2392C188.408 28.1133 188.616 28.8126 189.031 29.3371C189.468 29.8616 190.091 30.1238 190.899 30.1238ZM207.319 33.0413C204.958 33.0413 203.778 32.0688 203.778 30.1238C203.778 29.949 203.789 29.7523 203.811 29.5338C203.833 29.2934 203.866 29.053 203.91 28.8126L205.844 19.1753H203.385L204.008 15.9301H205.221C205.898 15.9301 206.346 15.799 206.565 15.5367C206.805 15.2526 206.98 14.8156 207.089 14.2255L207.679 11.2426H211.383L210.466 15.9301H213.907L213.252 19.1753H209.81L207.679 29.796H210.924L210.269 33.0413H207.319ZM220.329 33.4346C218.013 33.4346 216.265 32.7899 215.085 31.5006C213.926 30.2113 213.347 28.4193 213.347 26.1247C213.347 24.7479 213.566 23.4258 214.003 22.1583C214.44 20.869 215.052 19.7326 215.839 18.7492C216.647 17.7658 217.609 16.99 218.723 16.4218C219.86 15.8318 221.127 15.5367 222.526 15.5367C223.203 15.5367 223.892 15.6242 224.591 15.799C225.29 15.952 225.924 16.2142 226.492 16.5857C227.06 16.9354 227.53 17.4161 227.902 18.028C228.273 18.6399 228.459 19.3829 228.459 20.2571C228.459 22.049 227.574 23.4476 225.804 24.4529C224.055 25.4582 221.247 26.0045 217.379 26.0919C217.314 26.529 217.281 26.8458 217.281 27.0425C217.281 27.9822 217.543 28.7362 218.068 29.3043C218.592 29.8725 219.444 30.1566 220.625 30.1566C221.477 30.1566 222.253 29.9709 222.952 29.5994C223.651 29.2279 224.372 28.5832 225.115 27.6653L227.574 29.6977C226.503 31.0745 225.378 32.0469 224.198 32.6151C223.039 33.1615 221.75 33.4346 220.329 33.4346ZM222.264 18.6181C221.171 18.6181 220.242 18.9786 219.477 19.6998C218.712 20.421 218.21 21.4044 217.969 22.65L217.805 23.4695C219.204 23.4039 220.34 23.2947 221.215 23.1417C222.111 22.9669 222.799 22.7593 223.28 22.5189C223.782 22.2785 224.121 21.9944 224.296 21.6666C224.471 21.3388 224.558 20.9673 224.558 20.5521C224.558 20.1587 224.482 19.8418 224.329 19.6015C224.198 19.3392 224.023 19.1425 223.804 19.0114C223.586 18.8584 223.334 18.7601 223.05 18.7164C222.788 18.6508 222.526 18.6181 222.264 18.6181Z" fill="white"/>
</svg>
